<?xml version="1.0" standalone="no"?>

<svg viewBox="0 0 13 15" style="background-color:#ffffff00" version="1.1" xmlns="http://www.w3.org/2000/svg" xmlns:xlink="http://www.w3.org/1999/xlink" xml:space="preserve" x="0px" y="0px" width="13px" height="15px">
	<g id="Layer%201">
		<path d="M 5.2 0.2 L 0.3 5 C -0.3 5.5 -0.3 6.4 0.3 6.9 C 0.8 7.4 1.6 7.4 2.2 6.9 C 2.2 6.9 2.4 6.9 2.4 6.9 L 5 4.3 L 5 13.2 C 5 14 5.6 14.6 6.3 14.6 C 7.1 14.6 8 14 8 13.2 C 8 13.2 8 13.2 8 13.2 L 8 4.3 L 10.6 6.9 C 10.6 6.9 10.1 6.9 10.1 6.9 C 10.6 7.4 11.4 7.4 12 6.9 C 12.5 6.4 12.5 5.5 12 5 L 7.1 0.2 L 7.1 0.2 C 6.5 -0.3 5.7 -0.3 5.2 0.2 Z" fill="#ffffff"/>
	</g>
</svg>