<?xml version="1.0" standalone="no"?>

<svg viewBox="0 0 13 11" style="background-color:#ffffff00" version="1.1" xmlns="http://www.w3.org/2000/svg" xmlns:xlink="http://www.w3.org/1999/xlink" xml:space="preserve" x="0px" y="0px" width="13px" height="11px">
	<g id="Layer%201">
		<path d="M 12.7 4.7 L 8.4 0.3 C 8 -0.1 7.3 -0.1 6.8 0.3 C 6.3 0.8 6.3 1.6 6.8 2 C 6.8 2 6.8 2 6.8 2 L 9 4.3 L 1.2 4.3 C 0.5 4.3 0 4.8 0 5.5 C 0 6.2 0.5 6.7 1.2 6.7 C 1.2 6.7 1.2 6.7 1.2 6.7 L 9 6.7 L 6.8 9 C 6.8 9 6.8 9 6.8 9 C 6.3 9.4 6.3 10.2 6.8 10.7 C 7.3 11.1 8 11.1 8.4 10.7 L 12.7 6.3 L 12.7 6.3 C 13.1 5.9 13.1 5.1 12.7 4.7 Z" fill="#fbff66"/>
	</g>
</svg>