<?xml version="1.0" standalone="no"?>

<svg viewBox="0 0 13 13" style="background-color:#ffffff00" version="1.1" xmlns="http://www.w3.org/2000/svg" xmlns:xlink="http://www.w3.org/1999/xlink" xml:space="preserve" x="0px" y="0px" width="13px" height="13px">
	<path d="M 3.1 3 C 1.9 3.1 0.4 3.5 0.1 5.1 L 0.1 10.8 C 0.1 11.3 1.1 12.3 2.1 12.6 C 2.9 12.8 4.4 12.8 4.9 12.8 C 8 12.8 9.4 12.5 9.8 9.7 C 12.1 9.5 12.9 8.5 12.9 4.8 C 12.9 1.1 12.6 0.1 7.9 0.1 C 6.9 0.1 3.6 -0.4 3.1 2.1 L 3.1 3 ZM 9.9 7.8 C 9.9 4.1 9.6 3.1 4.9 3.1 C 4.7 3.1 4.4 3 4.1 3 L 4.1 2.3 C 4.4 1.8 4.9 1.3 5.4 1.1 L 7.9 1.1 C 12.1 1.1 11.9 1.6 11.9 4.8 C 11.9 8 11.4 8.7 9.8 8.8 C 9.9 8.5 9.9 8.2 9.9 7.8 ZM 8.8 9.8 C 8.5 12 7.5 11.8 4.9 11.8 C 4.4 11.8 1.1 12.1 1.1 10.6 L 1.1 5.3 C 1.4 4.8 1.9 4.3 2.4 4.1 L 3.1 4.1 L 3.1 7.8 C 3.1 8.3 4.1 9.3 5.1 9.6 C 5.9 9.8 7.4 9.8 7.9 9.8 C 8.2 9.8 8.5 9.8 8.8 9.8 ZM 8.9 7.8 C 8.9 8.2 8.9 8.5 8.9 8.8 L 7.9 8.8 C 7.4 8.8 4.1 9.1 4.1 7.6 L 4.1 4.1 L 4.9 4.1 C 9.1 4.1 8.9 4.6 8.9 7.8 Z" fill="#009044"/>
</svg>