<svg width="605" height="630" viewBox="0 0 605 630" fill="none" xmlns="http://www.w3.org/2000/svg">
<rect width="605" height="630" fill="white"/>
<rect x="1" y="520" width="595" height="109" fill="white" stroke="#009044" stroke-width="2"/>
<path d="M215.412 583.248C215.376 584.832 215.34 585.552 215.34 585.768C215.34 586.092 215.412 586.164 215.736 586.164H218.328C218.652 586.164 218.724 586.092 218.724 585.768C218.724 585.552 218.652 584.832 218.652 583.248H223.116C226.644 583.248 227.868 583.32 228.084 583.32C228.444 583.32 228.48 583.284 228.48 582.924V580.872C228.48 580.512 228.444 580.476 228.084 580.476C227.868 580.476 226.644 580.548 223.116 580.548H218.652V578.964H221.28C224.556 578.964 225.708 579.036 225.924 579.036C226.284 579.036 226.32 579 226.32 578.64C226.32 578.424 226.248 577.596 226.248 575.652V572.016C226.248 570.036 226.32 569.208 226.32 569.028C226.32 568.668 226.284 568.632 225.924 568.632C225.708 568.632 224.556 568.704 221.28 568.704H218.652V567.084H221.712C223.872 567.084 224.952 567.156 225.168 567.156C225.528 567.156 225.564 567.12 225.564 566.76V565.788H228.264C228.624 565.788 228.66 565.752 228.66 565.428C228.66 565.212 228.588 564.78 228.588 562.116V561C228.588 560.28 228.66 559.776 228.66 559.56C228.66 559.164 228.624 559.128 228.264 559.128C228.048 559.128 226.788 559.2 223.26 559.2H211.128C207.636 559.2 206.376 559.128 206.124 559.128C205.764 559.128 205.728 559.164 205.728 559.56C205.728 559.776 205.8 560.28 205.8 561.216V562.116C205.8 564.78 205.728 565.212 205.728 565.428C205.728 565.752 205.764 565.788 206.124 565.788H208.716V566.76C208.716 567.12 208.752 567.156 209.112 567.156C209.328 567.156 210.408 567.084 212.568 567.084H215.412V568.704H212.964C209.688 568.704 208.536 568.632 208.284 568.632C207.96 568.632 207.924 568.668 207.924 569.028C207.924 569.244 207.96 570.036 207.96 572.016V575.652C207.96 577.596 207.924 578.424 207.924 578.64C207.924 579 207.96 579.036 208.284 579.036C208.536 579.036 209.688 578.964 212.964 578.964H215.412V580.548H211.416C207.924 580.548 206.7 580.476 206.484 580.476C206.124 580.476 206.088 580.512 206.088 580.872V582.924C206.088 583.284 206.124 583.32 206.484 583.32C206.7 583.32 207.924 583.248 211.416 583.248H215.412ZM225.168 562.044V564.528C224.952 564.528 223.872 564.6 221.712 564.6H218.652C218.688 564.24 218.76 564.06 218.868 563.88C218.976 563.628 219.048 563.448 219.048 563.268C219.048 563.052 218.832 562.98 218.508 562.944C217.212 562.8 216.492 562.764 215.16 562.728C215.268 563.304 215.34 563.952 215.376 564.6H212.568C210.408 564.6 209.328 564.528 209.112 564.528V562.044H225.168ZM223.044 576.696H218.652V574.86H223.044V576.696ZM223.044 570.936V572.736H218.652V570.936H223.044ZM211.128 576.696V574.86H215.412V576.696H211.128ZM211.128 572.736V570.936H215.412V572.736H211.128ZM204.792 575.292C204.792 573.024 204.864 571.98 204.864 571.764C204.864 571.404 204.828 571.368 204.468 571.368C204.288 571.368 203.712 571.44 201.84 571.44H199.752C197.88 571.44 197.376 571.368 197.196 571.368C196.8 571.368 196.764 571.404 196.764 571.764V574.5C196.764 574.896 196.8 574.932 197.196 574.932C197.376 574.932 197.88 574.86 199.752 574.86H201.3V582.96C200.436 583.788 199.572 584.544 198.564 585.156C197.808 585.624 197.304 585.876 196.404 586.308C196.908 587.604 197.304 588.54 197.808 589.512C197.952 589.764 198.096 590.016 198.348 590.016C198.492 590.016 198.672 589.872 198.852 589.656C198.996 589.476 199.284 589.188 199.68 588.9C200.976 587.856 202.128 586.92 203.172 585.912C204.216 587.46 205.224 588.36 206.88 589.044C208.608 589.764 211.596 590.124 215.7 590.124C219.444 590.124 223.404 590.016 227.904 589.8C229.056 589.728 229.056 589.692 229.272 588.54C229.38 587.712 229.704 586.92 230.208 586.236C224.844 586.704 219.948 586.884 215.268 586.884C212.136 586.884 209.256 586.632 207.96 586.164C206.448 585.552 205.584 584.832 204.792 583.356V575.292ZM197.808 560.46C197.412 560.748 197.376 560.82 197.628 561.072C199.212 562.62 200.76 564.528 202.056 566.688C202.2 566.868 202.272 566.976 202.38 566.976C202.488 566.976 202.596 566.904 202.812 566.724L204.828 565.104C205.224 564.78 205.224 564.672 205.044 564.384C203.712 562.368 202.164 560.604 200.508 559.056C200.364 558.912 200.292 558.84 200.184 558.84C200.076 558.84 199.932 558.912 199.716 559.092L197.808 560.46ZM249.324 568.344C246.048 568.344 244.896 568.272 244.68 568.272C244.356 568.272 244.32 568.308 244.32 568.704C244.32 568.884 244.392 569.496 244.392 571.152V574.32C244.392 575.976 244.32 576.552 244.32 576.804C244.32 577.164 244.356 577.2 244.68 577.2C244.896 577.2 246.048 577.128 249.324 577.128H250.8C250.512 577.956 250.152 578.784 249.792 579.54H246.3C242.772 579.54 241.512 579.504 241.26 579.504C240.9 579.504 240.864 579.54 240.864 579.9C240.864 580.116 240.936 580.98 240.936 583.104V585.048C240.936 589.368 240.864 590.16 240.864 590.376C240.864 590.736 240.9 590.772 241.26 590.772H244.32C244.644 590.772 244.68 590.736 244.68 590.376V589.152H262.032V590.232C262.032 590.556 262.068 590.592 262.428 590.592H265.452C265.812 590.592 265.812 590.556 265.812 590.232C265.812 590.016 265.776 589.224 265.776 584.976V582.672C265.776 580.98 265.812 580.116 265.812 579.9C265.812 579.54 265.812 579.504 265.452 579.504C265.2 579.504 263.94 579.54 260.412 579.54H253.572C253.896 578.82 254.256 578.028 254.58 577.128H257.316C260.556 577.128 261.708 577.2 261.96 577.2C262.284 577.2 262.32 577.164 262.32 576.804C262.32 576.588 262.248 575.976 262.248 574.32V571.152C262.248 569.496 262.32 568.884 262.32 568.704C262.32 568.308 262.284 568.272 261.96 568.272C261.708 568.272 260.556 568.344 257.316 568.344H249.324ZM244.68 582.708H262.032V586.02H244.68V582.708ZM247.992 571.152H258.684V574.284H247.992V571.152ZM242.304 558.912C241.872 559.056 241.836 559.128 242.052 559.452C242.736 560.424 243.42 561.612 243.888 562.764C243.96 562.944 243.996 562.98 244.068 563.052H243.24C239.928 563.052 238.74 562.98 238.488 562.98C238.128 562.98 238.092 563.016 238.092 563.376C238.092 563.628 238.164 564.276 238.164 565.536V566.832C238.164 570 238.092 570.576 238.092 570.792C238.092 571.188 238.128 571.224 238.488 571.224H241.368C241.728 571.224 241.764 571.188 241.764 570.792V566.148H264.912V570.828C264.912 571.188 264.948 571.224 265.308 571.224H268.188C268.548 571.224 268.584 571.188 268.584 570.828C268.584 570.612 268.512 570.036 268.512 566.868V565.284C268.512 564.276 268.584 563.592 268.584 563.376C268.584 563.016 268.548 562.98 268.188 562.98C267.936 562.98 266.748 563.052 263.436 563.052H262.716C263.184 562.332 263.58 561.612 264.084 560.784C264.3 560.388 264.588 560.1 264.84 559.92C265.056 559.74 265.164 559.596 265.164 559.308C265.164 559.092 265.02 558.984 264.696 558.84C263.688 558.444 262.5 558.084 261.276 557.796C261.096 558.552 260.88 559.128 260.7 559.596C260.196 560.784 259.584 561.828 258.864 563.052H244.5L247.02 562.224C247.524 562.044 247.524 562.008 247.344 561.684C246.84 560.604 246.12 559.452 245.256 558.3C245.04 558.048 244.932 557.976 244.464 558.156L242.304 558.912ZM250.692 558.48C250.26 558.624 250.152 558.66 250.368 559.02C251.016 560.136 251.556 561.36 252.06 562.548C252.204 562.944 252.24 562.98 252.78 562.836L255.192 562.116C255.696 561.972 255.732 561.9 255.588 561.612C255.084 560.352 254.4 558.984 253.788 558.012C253.608 557.688 253.5 557.616 253.068 557.76L250.692 558.48ZM288.708 568.308C285.504 570.72 281.868 572.196 277.116 573.204C277.584 573.672 278.124 574.428 278.556 575.22C279.132 576.264 279.132 576.264 280.176 575.976C284.244 574.824 288.492 572.772 291.624 569.424C291.588 571.548 291.48 573.312 291.48 573.888C291.48 574.284 291.516 574.32 291.876 574.32H294.936C295.296 574.32 295.332 574.284 295.332 573.888C295.332 573.312 295.188 571.512 295.152 569.352C298.104 572.304 302.136 574.572 307.104 575.904C308.184 576.192 308.184 576.156 308.724 575.148C309.156 574.32 309.732 573.456 310.272 572.916C305.232 571.908 301.524 570.684 298.068 568.308H303.648C306.96 568.308 308.112 568.38 308.328 568.38C308.724 568.38 308.76 568.344 308.76 567.984V565.608C308.76 565.284 308.724 565.248 308.328 565.248C308.112 565.248 306.96 565.32 303.648 565.32H295.224V562.512C298.176 562.26 300.768 561.936 303.108 561.576C304.08 561.432 304.656 561.396 305.016 561.396C305.52 561.396 305.808 561.216 305.808 560.928C305.808 560.64 305.664 560.46 305.412 560.208C304.62 559.488 303.648 558.804 302.496 558.12C301.524 558.48 300.804 558.66 299.436 558.912C297.168 559.308 294.828 559.596 291.912 559.812C288.384 560.064 285.18 560.208 280.968 560.172C281.364 560.712 281.832 561.504 282.192 562.296C282.588 563.232 282.588 563.232 283.776 563.196C286.44 563.124 288.78 563.016 291.552 562.836V565.32H283.524C280.212 565.32 279.06 565.248 278.844 565.248C278.484 565.248 278.448 565.284 278.448 565.608V567.984C278.448 568.344 278.484 568.38 278.844 568.38C279.06 568.38 280.212 568.308 283.524 568.308H288.708ZM307.608 588.216C307.752 588.036 307.824 587.892 307.824 587.82C307.824 587.712 307.716 587.64 307.536 587.568C304.476 586.2 301.488 585.12 298.536 584.22C299.724 582.96 300.768 581.484 301.632 579.756H305.16C308.292 579.756 309.372 579.828 309.588 579.828C309.912 579.828 309.948 579.792 309.948 579.432V577.056C309.948 576.66 309.912 576.624 309.588 576.624C309.372 576.624 308.292 576.696 305.16 576.696H292.344C292.632 576.228 292.848 575.94 293.1 575.796C293.388 575.652 293.568 575.544 293.568 575.256C293.568 575.076 293.352 574.932 293.028 574.824C292.092 574.536 290.832 574.212 289.644 573.996C289.284 574.968 288.816 575.904 288.312 576.696H282.084C278.952 576.696 277.908 576.624 277.692 576.624C277.368 576.624 277.332 576.66 277.332 577.056V579.432C277.332 579.792 277.368 579.828 277.692 579.828C277.908 579.828 278.952 579.756 282.084 579.756H286.152C285.504 580.584 284.82 581.34 284.064 582.168C283.56 582.708 282.984 583.248 282.408 583.752C282.12 584.004 282.12 584.22 282.624 584.364L285.252 585.084C285.684 585.192 285.9 585.12 286.188 584.832L286.728 584.292C288.24 584.652 289.644 584.976 291.048 585.372C287.88 586.74 283.632 587.532 277.944 587.64C278.592 588.216 279.204 589.008 279.672 589.836C280.14 590.736 280.14 590.736 281.148 590.664C287.016 590.16 291.804 589.08 295.512 586.704C298.968 587.82 302.136 589.08 305.16 590.664C305.556 590.88 305.7 590.808 305.952 590.448L307.608 588.216ZM297.528 579.756C296.808 581.016 295.872 582.168 294.684 583.14C292.74 582.636 290.796 582.204 288.852 581.808C289.392 581.124 289.896 580.44 290.364 579.756H297.528ZM340.872 584.4C344.4 584.4 345.66 584.472 345.876 584.472C346.236 584.472 346.272 584.436 346.272 584.076C346.272 583.896 346.2 582.78 346.2 580.296V572.808C346.2 570.288 346.272 569.208 346.272 568.992C346.272 568.632 346.236 568.596 345.876 568.596C345.66 568.596 344.4 568.668 340.872 568.668H326.976C323.448 568.668 322.188 568.596 321.972 568.596C321.576 568.596 321.54 568.632 321.54 568.992C321.54 569.208 321.612 570.288 321.612 572.808V580.296C321.612 582.78 321.54 583.86 321.54 584.076C321.54 584.436 321.576 584.472 321.972 584.472C322.188 584.472 323.448 584.4 326.976 584.4H327.84C327.336 584.868 326.544 585.3 326.04 585.516C324.096 586.488 321.108 587.352 318.012 587.748C318.552 588.288 319.236 589.188 319.668 590.016C320.028 590.736 320.136 590.988 320.532 590.988C320.712 590.988 320.928 590.916 321.288 590.844C324.42 590.124 327.444 588.864 329.316 587.748C330 587.388 330.36 587.172 330.72 587.1C331.08 587.028 331.296 586.848 331.296 586.596C331.296 586.38 331.188 586.272 330.828 586.02C330.144 585.552 329.244 584.94 328.056 584.4H340.872ZM342.492 581.628H325.32V579.756H342.492V581.628ZM325.32 577.344V575.544H342.492V577.344H325.32ZM325.32 571.404H342.492V573.168H325.32V571.404ZM328.812 559.056C325.392 559.056 324.24 558.984 323.988 558.984C323.628 558.984 323.592 559.02 323.592 559.38C323.592 559.596 323.664 560.208 323.664 561.792V564.132C323.664 565.68 323.592 566.256 323.592 566.508C323.592 566.868 323.628 566.904 323.988 566.904C324.24 566.904 325.392 566.832 328.812 566.832H339.072C342.492 566.832 343.68 566.904 343.896 566.904C344.256 566.904 344.292 566.868 344.292 566.508C344.292 566.292 344.22 565.68 344.22 564.132V561.792C344.22 560.208 344.292 559.596 344.292 559.38C344.292 559.02 344.256 558.984 343.896 558.984C343.68 558.984 342.492 559.056 339.072 559.056H328.812ZM340.476 564.132H327.408V561.864H340.476V564.132ZM337.02 586.092C336.768 586.236 336.66 586.344 336.66 586.452C336.66 586.56 336.732 586.632 336.876 586.74C339.432 588.468 342.816 589.908 346.416 590.736C346.776 590.808 346.992 590.88 347.172 590.88C347.532 590.88 347.676 590.628 348.108 589.944C348.612 589.152 349.26 588.324 349.872 587.748C345.984 587.244 342.672 586.164 339.972 584.58C339.828 584.508 339.756 584.472 339.684 584.472C339.54 584.472 339.396 584.544 339.216 584.688L337.02 586.092ZM368.556 579.036C367.728 581.268 366.684 583.572 365.388 586.02C364.992 586.02 364.596 586.056 364.236 586.056C362.832 586.128 361.644 586.164 360.312 586.056C360.528 587.316 360.744 588.576 361.068 589.764C361.14 590.088 361.32 590.268 361.572 590.268C361.824 590.268 362.004 590.196 362.184 590.052C362.436 589.908 362.904 589.764 363.48 589.728C369.6 589.26 376.944 588.648 382.92 587.892C383.496 588.756 384.108 589.692 384.72 590.7C384.828 590.88 384.9 590.952 385.008 590.952C385.116 590.952 385.224 590.88 385.44 590.736L387.924 589.116C388.284 588.864 388.284 588.72 388.104 588.432C385.908 585.228 383.856 582.636 381.408 580.08C381.156 579.828 381.048 579.792 380.652 580.008L378.348 581.196C377.916 581.412 377.88 581.556 378.132 581.844C379.104 582.888 379.932 583.896 380.76 584.904C377.34 585.264 373.416 585.588 369.672 585.804C370.896 583.536 371.976 581.268 372.876 579.036H384C387.384 579.036 388.536 579.108 388.752 579.108C389.148 579.108 389.184 579.072 389.184 578.712V576.012C389.184 575.652 389.148 575.616 388.752 575.616C388.536 575.616 387.384 575.688 384 575.688H364.812C361.428 575.688 360.276 575.616 360.06 575.616C359.664 575.616 359.628 575.652 359.628 576.012V578.712C359.628 579.072 359.664 579.108 360.06 579.108C360.276 579.108 361.428 579.036 364.812 579.036H368.556ZM367.116 572.016C367.116 572.376 367.152 572.412 367.512 572.412C367.728 572.412 368.7 572.34 371.58 572.34H377.124C380.004 572.34 380.976 572.412 381.192 572.412C381.552 572.412 381.588 572.376 381.588 572.016V569.352C383.676 570.828 386.016 572.088 388.464 573.168C388.86 573.348 389.112 573.456 389.292 573.456C389.544 573.456 389.652 573.204 389.904 572.556C390.3 571.584 390.768 570.72 391.452 569.856C385.152 567.66 380.292 564.528 376.224 559.56C376.368 559.452 376.512 559.344 376.728 559.236C377.016 559.092 377.088 558.876 377.088 558.66C377.088 558.408 376.872 558.264 376.44 558.156C375.288 557.832 373.956 557.58 372.552 557.4C372.228 558.228 371.904 558.84 371.292 559.74C368.412 563.916 363.732 567.732 357.468 570.216C358.152 570.9 358.656 571.692 359.088 572.592C359.376 573.24 359.484 573.492 359.736 573.492C359.916 573.492 360.168 573.384 360.6 573.168C362.904 572.052 365.1 570.756 367.116 569.28V572.016ZM371.58 568.992C368.952 568.992 367.944 568.956 367.62 568.92C370.104 567.048 372.3 564.852 374.208 562.332C376.152 564.852 378.42 567.048 381.012 568.92C380.616 568.956 379.536 568.992 377.124 568.992H371.58Z" fill="#009044"/>
<line x1="295" y1="109" x2="295" y2="519" stroke="#009044" stroke-width="2"/>
<rect x="2" y="346" width="597" height="111" fill="#009044"/>
<path d="M224.82 392.788H244.404C247.824 392.788 249.012 392.86 249.228 392.86C249.552 392.86 249.588 392.824 249.588 392.428V389.692C249.588 389.332 249.552 389.296 249.228 389.296C249.012 389.296 247.824 389.368 244.404 389.368H237.096V387.712C237.096 386.92 237.204 386.416 237.348 386.164C237.492 385.912 237.564 385.732 237.564 385.48C237.564 385.264 237.348 385.156 236.988 385.12C235.728 385.012 234.54 384.94 233.172 384.904C233.352 385.768 233.388 386.704 233.388 387.82V389.368H226.224C222.804 389.368 221.544 389.296 221.328 389.296C220.968 389.296 220.932 389.332 220.932 389.692C220.932 389.908 221.004 391.96 221.004 396.46C221.004 400.564 220.788 404.344 220.176 407.224C219.564 410.248 218.736 412.444 217.224 414.748C217.872 415.144 218.88 415.936 219.636 416.764C219.996 417.16 220.176 417.34 220.356 417.34C220.536 417.34 220.68 417.124 220.932 416.656C222.372 414.136 223.236 411.724 223.812 408.7C224.496 405.208 224.82 401.392 224.82 397.144V392.788ZM239.184 404.092C238.752 404.308 238.716 404.452 238.896 404.74C240.192 406.648 241.38 408.556 242.424 410.536C239.22 411.112 235.62 411.58 232.092 411.976C233.856 407.62 235.152 403.624 236.376 399.196C236.664 398.08 236.952 397.576 237.276 397.18C237.492 396.928 237.6 396.712 237.6 396.46C237.6 396.172 237.492 395.992 236.988 395.848C235.908 395.488 234.396 395.056 232.992 394.768C232.92 396.064 232.776 397.108 232.524 398.116C231.336 403.012 230.076 407.188 228.024 412.372C226.404 412.48 225.216 412.48 223.92 412.444C224.208 413.884 224.496 415.18 224.784 416.188C224.928 416.584 225.072 416.728 225.324 416.728C225.468 416.728 225.684 416.656 225.9 416.512C226.188 416.332 226.656 416.188 227.232 416.116C233.136 415.468 239.364 414.532 244.008 413.704C244.512 414.784 244.98 415.864 245.448 416.944C245.592 417.304 245.772 417.412 246.204 417.196L248.868 415.792C249.3 415.576 249.336 415.432 249.192 415.072C247.392 411.22 244.908 406.828 242.28 403.048C242.064 402.724 241.992 402.76 241.524 402.976L239.184 404.092ZM285.372 407.872C285.192 410.284 284.904 412.624 284.436 413.488C284.148 414.028 283.608 414.208 282.888 414.208C282.096 414.208 281.196 414.136 279.972 413.956C280.26 414.532 280.62 415.468 280.8 416.656C280.908 417.412 280.944 417.484 281.736 417.52C282.528 417.556 283.104 417.556 283.752 417.556C285.3 417.556 286.38 417.16 287.244 416.152C288.144 415.072 288.792 412.264 289.152 408.052C289.224 407.296 289.26 406.36 289.368 405.568C289.404 405.208 289.296 405.136 288.936 405.136C288.72 405.136 287.496 405.208 283.932 405.208H266.508V403.48H284.94C288.468 403.48 289.692 403.552 289.908 403.552C290.304 403.552 290.34 403.516 290.34 403.12V401.14C290.34 400.78 290.304 400.744 289.908 400.744C289.692 400.744 288.468 400.816 284.94 400.816H266.508V399.124H279.072C282.528 399.124 283.752 399.16 283.932 399.16C284.328 399.16 284.364 399.16 284.364 398.656C284.364 398.44 284.292 397.792 284.292 395.74V391.384C284.292 389.332 284.364 388.576 284.364 388.36C284.364 388 284.328 387.964 283.932 387.964C283.752 387.964 282.528 388.036 279.072 388.036H273.744C273.924 387.568 274.104 387.1 274.32 386.632C274.464 386.344 274.644 386.128 274.896 385.912C275.076 385.732 275.22 385.588 275.22 385.372C275.22 385.156 275.04 384.976 274.752 384.94C273.348 384.688 272.16 384.544 270.936 384.436C270.828 385.192 270.648 385.84 270.432 386.416C270.252 386.92 270.036 387.46 269.748 388.036H268.092C264.672 388.036 263.412 387.964 263.196 387.964C262.836 387.964 262.8 388 262.8 388.36C262.8 388.54 262.872 389.836 262.872 392.716V403.084C262.872 406 262.8 407.332 262.8 407.548C262.8 407.908 262.836 407.944 263.196 407.944C263.376 407.944 264.996 407.872 267.912 407.872V412.372H263.196V410.896C263.196 410.608 263.268 410.212 263.376 409.996C263.484 409.816 263.556 409.636 263.556 409.456C263.556 409.276 263.412 409.132 263.052 409.06C261.9 408.916 260.748 408.844 259.452 408.808C259.632 409.888 259.632 410.428 259.632 411.652V414.604C259.632 415.792 259.56 416.224 259.56 416.476C259.56 416.836 259.596 416.872 259.992 416.872H262.764C263.124 416.872 263.16 416.836 263.16 416.476V415.144H274.356C276.84 415.144 278.46 415.18 279.432 415.216C279.792 415.216 279.828 415.18 279.828 414.784C279.828 414.568 279.792 414.1 279.792 413.488V411.328C279.792 410.608 279.864 410.284 279.972 410.032C280.044 409.852 280.188 409.672 280.188 409.42C280.188 409.204 280.008 409.06 279.684 409.024C278.532 408.88 277.38 408.808 276.084 408.736C276.228 409.492 276.264 409.996 276.264 410.752V412.372H271.548V407.872H285.372ZM280.62 396.532H266.508V394.732H280.62V396.532ZM280.62 390.664V392.428H266.508V390.664H280.62ZM312.372 393.688V398.152H306.792C303.3 398.152 302.112 398.08 301.896 398.08C301.536 398.08 301.5 398.116 301.5 398.476V401.248C301.5 401.608 301.536 401.644 301.896 401.644C302.076 401.644 303.012 401.608 305.46 401.572C306.972 404.956 308.916 407.656 311.292 409.888C307.836 411.796 303.588 413.128 298.296 414.208C298.8 414.82 299.376 415.756 299.772 416.764C300.024 417.448 300.132 417.7 300.492 417.7C300.672 417.7 300.924 417.664 301.284 417.556C306.432 416.224 310.716 414.532 314.316 412.264C317.952 414.676 322.416 416.332 327.96 417.592C328.32 417.664 328.572 417.7 328.752 417.7C329.148 417.7 329.256 417.484 329.508 416.764C329.904 415.756 330.48 414.64 331.056 413.884C325.656 413.056 321.264 411.832 317.664 409.816C320.148 407.728 322.308 405.208 324.252 402.148C324.576 401.608 324.792 401.428 325.116 401.176C325.44 400.924 325.62 400.816 325.62 400.528C325.62 400.204 325.332 399.772 324.504 398.98C323.604 398.08 323.316 397.864 323.064 397.864C322.92 397.864 322.74 397.936 322.596 398.008C322.416 398.08 322.092 398.152 321.552 398.152H316.296V393.688H325.476C328.716 393.688 329.832 393.76 330.048 393.76C330.408 393.76 330.444 393.724 330.444 393.364V390.52C330.444 390.124 330.408 390.088 330.048 390.088C329.832 390.088 328.716 390.16 325.476 390.16H316.296V389.224C316.296 387.352 316.404 386.74 316.512 386.38C316.62 386.128 316.764 385.912 316.764 385.624C316.764 385.444 316.512 385.264 316.188 385.228C314.928 385.084 313.38 385.012 312.084 384.976C312.336 386.632 312.372 387.532 312.372 389.584V390.16H303.732C300.492 390.16 299.376 390.088 299.16 390.088C298.8 390.088 298.764 390.124 298.764 390.52V393.364C298.764 393.724 298.8 393.76 299.16 393.76C299.376 393.76 300.492 393.688 303.732 393.688H312.372ZM319.896 401.572C318.42 404.02 316.656 406.036 314.568 407.692C312.624 406.072 310.968 404.092 309.6 401.572H319.896ZM361.656 386.488C359.64 386.488 358.668 386.416 358.452 386.416C358.056 386.416 358.02 386.452 358.02 386.812C358.02 387.064 358.092 389.476 358.092 394.408V409.96C358.092 414.856 358.02 417.232 358.02 417.448C358.02 417.808 358.056 417.844 358.452 417.844H361.332C361.692 417.844 361.728 417.808 361.728 417.448C361.728 417.268 361.656 414.748 361.656 409.924V389.764H366.696C365.616 393.148 364.464 396.136 362.988 399.196C366.804 402.724 367.632 404.488 367.632 406.756C367.632 408.88 366.012 409.78 362.628 409.708C363.096 410.248 363.456 411.04 363.636 412.084C363.816 413.272 363.816 413.272 364.932 413.164C369.144 412.768 371.268 410.788 371.268 407.044C371.268 404.092 370.548 401.932 366.876 398.62C368.1 396.028 369.108 393.58 370.152 390.808C370.476 389.98 370.656 389.656 370.908 389.476C371.088 389.296 371.232 389.116 371.232 388.828C371.232 388.54 371.124 388.216 370.368 387.352C369.432 386.416 369.144 386.272 368.856 386.272C368.676 386.272 368.532 386.308 368.316 386.38C368.172 386.452 367.848 386.488 367.416 386.488H361.656ZM344.16 417.412C344.52 417.412 344.556 417.376 344.556 417.052V415.252H351.396V416.908C351.396 417.304 351.432 417.34 351.792 417.34H354.564C354.96 417.34 354.996 417.304 354.996 416.908C354.996 416.692 354.924 415.792 354.924 410.86V407.872C354.924 405.568 354.996 404.56 354.996 404.344C354.996 403.984 354.96 403.948 354.564 403.948C354.348 403.948 353.376 404.02 350.568 404.02H345.384C342.576 404.02 341.64 403.948 341.388 403.948C341.028 403.948 340.992 403.984 340.992 404.344C340.992 404.596 341.064 405.568 341.064 408.376V410.968C341.064 415.9 340.992 416.8 340.992 417.052C340.992 417.376 341.028 417.412 341.388 417.412H344.16ZM344.556 407.152H351.396V412.084H344.556V407.152ZM351.828 401.356C355.068 401.356 356.184 401.428 356.4 401.428C356.76 401.428 356.796 401.392 356.796 401.032V398.44C356.796 398.08 356.76 398.044 356.4 398.044C356.184 398.044 355.14 398.116 352.332 398.116C352.872 396.856 353.232 395.848 353.556 394.804C353.664 394.516 353.808 394.192 354.024 393.976C354.168 393.832 354.312 393.652 354.312 393.4C354.312 393.148 354.096 393.04 353.772 392.932C352.836 392.644 351.612 392.392 350.64 392.212C350.568 392.968 350.496 393.472 350.352 394.012C350.028 395.236 349.668 396.46 349.02 398.116H343.8C340.524 398.116 339.408 398.044 339.192 398.044C338.868 398.044 338.832 398.08 338.832 398.44V401.032C338.832 401.392 338.868 401.428 339.192 401.428C339.408 401.428 340.524 401.356 343.8 401.356H351.828ZM351.504 391.672C354.636 391.672 355.68 391.744 355.896 391.744C356.256 391.744 356.292 391.708 356.292 391.348V388.828C356.292 388.432 356.256 388.396 355.896 388.396C355.68 388.396 354.636 388.468 351.504 388.468H349.668V387.856C349.668 386.812 349.704 386.38 349.812 386.128C349.956 385.84 350.064 385.66 350.064 385.408C350.064 385.264 349.848 385.12 349.488 385.084C348.264 384.976 347.148 384.868 345.852 384.832C346.032 385.66 346.068 386.524 346.068 387.82V388.468H344.448C341.28 388.468 340.236 388.396 340.02 388.396C339.66 388.396 339.624 388.432 339.624 388.828V391.348C339.624 391.708 339.66 391.744 340.02 391.744C340.236 391.744 341.28 391.672 344.448 391.672H351.504ZM345.816 397C346.248 396.856 346.32 396.856 346.248 396.46C345.996 395.092 345.528 393.616 345.096 392.5C344.952 392.14 344.844 392.104 344.412 392.212L342.432 392.752C341.964 392.896 341.892 392.896 342.036 393.292C342.504 394.48 342.828 395.92 343.044 397.252C343.116 397.684 343.152 397.756 343.692 397.612L345.816 397Z" fill="white"/>
<rect x="2" y="173" width="597" height="111" fill="#009044"/>
<path d="M265.304 243.188C268.832 243.188 270.092 243.26 270.272 243.26C270.632 243.26 270.668 243.224 270.668 242.864V240.308C270.668 239.948 270.632 239.912 270.272 239.912C270.092 239.912 268.832 239.984 265.304 239.984H261.164V236.456H263.9C267.176 236.456 268.328 236.528 268.544 236.528C268.904 236.528 268.94 236.492 268.94 236.132V233.648C268.94 233.288 268.904 233.252 268.544 233.252C268.328 233.252 267.176 233.324 263.9 233.324H261.164V230.228H263.792C267.104 230.228 268.256 230.3 268.508 230.3C268.868 230.3 268.904 230.264 268.904 229.94C268.904 229.724 268.832 228.572 268.832 225.944V217.952C268.832 215.396 268.904 214.244 268.904 214.028C268.904 213.668 268.868 213.632 268.508 213.632C268.256 213.632 267.104 213.704 263.792 213.704H255.224C251.948 213.704 250.76 213.632 250.544 213.632C250.148 213.632 250.112 213.668 250.112 214.028C250.112 214.28 250.184 215.396 250.184 217.952V225.944C250.184 228.572 250.112 229.724 250.112 229.94C250.112 230.264 250.148 230.3 250.544 230.3C250.76 230.3 251.948 230.228 255.224 230.228H257.564V233.324H255.332C252.02 233.324 250.904 233.252 250.688 233.252C250.328 233.252 250.292 233.288 250.292 233.648V236.132C250.292 236.492 250.328 236.528 250.688 236.528C250.904 236.528 252.02 236.456 255.332 236.456H257.564V239.984H252.092C248.528 239.984 247.304 239.912 247.088 239.912C246.728 239.912 246.692 239.948 246.692 240.308V242.864C246.692 243.224 246.728 243.26 247.088 243.26C247.304 243.26 248.528 243.188 252.092 243.188H265.304ZM265.412 227.204H261.164V223.352H265.412V227.204ZM265.412 216.764V220.4H261.164V216.764H265.412ZM253.568 227.204V223.352H257.564V227.204H253.568ZM253.568 220.4V216.764H257.564V220.4H253.568ZM245.504 227.132C247.484 227.132 248.168 227.204 248.384 227.204C248.744 227.204 248.744 227.168 248.744 226.808V224.216C248.744 223.82 248.744 223.784 248.384 223.784C248.168 223.784 247.484 223.856 245.504 223.856V217.52C247.916 217.52 248.672 217.592 248.852 217.592C249.212 217.592 249.248 217.556 249.248 217.196V214.568C249.248 214.172 249.212 214.136 248.852 214.136C248.672 214.136 247.916 214.208 245.468 214.208H241.724C239.312 214.208 238.556 214.136 238.34 214.136C238.016 214.136 237.98 214.172 237.98 214.568V217.196C237.98 217.556 238.016 217.592 238.34 217.592C238.556 217.592 239.312 217.52 241.724 217.52H241.94V223.856C239.672 223.856 238.988 223.784 238.772 223.784C238.412 223.784 238.376 223.82 238.376 224.216V226.808C238.376 227.168 238.412 227.204 238.772 227.204C238.988 227.204 239.672 227.132 241.94 227.132V234.944L240.896 235.304C239.636 235.7 238.592 235.988 237.512 236.168C237.8 237.464 238.088 238.616 238.412 239.552C238.556 239.912 238.7 240.02 238.88 240.02C239.096 240.02 239.24 239.948 239.456 239.768C239.636 239.624 239.996 239.48 240.572 239.228C243.308 238.184 245.972 237.032 248.348 235.772C249.284 235.232 249.284 235.232 249.248 234.044C249.212 233.252 249.212 232.316 249.248 231.704C247.988 232.388 246.764 232.964 245.504 233.54V227.132ZM292.52 234.584V236.276H286.616C283.088 236.276 281.9 236.204 281.684 236.204C281.324 236.204 281.288 236.24 281.288 236.636V238.58C281.288 238.976 281.324 239.012 281.684 239.012C281.9 239.012 283.088 238.94 286.616 238.94H292.52V239.768C292.52 240.812 292.196 241.064 290.648 241.1C289.316 241.136 288.344 241.1 287.012 240.956C287.624 241.82 288.092 242.792 288.416 243.692C288.776 244.7 288.776 244.736 289.856 244.736C292.448 244.7 294.032 244.448 294.932 243.944C295.904 243.368 296.228 242.396 296.228 240.74C296.228 240.2 296.228 239.588 296.192 238.94H303.788V239.732C303.788 240.092 303.824 240.128 304.184 240.128H306.956C307.316 240.128 307.352 240.092 307.352 239.732C307.352 239.516 307.28 238.58 307.28 236.42V234.584C309.404 234.62 310.232 234.656 310.412 234.656C310.736 234.656 310.772 234.62 310.772 234.26V232.1C310.772 231.74 310.736 231.704 310.412 231.704C310.232 231.704 309.404 231.776 307.28 231.776V230.948C307.28 228.896 307.352 228.032 307.352 227.816C307.352 227.456 307.316 227.42 306.956 227.42C306.776 227.42 305.516 227.492 301.988 227.492H296.156V225.908H300.944C304.472 225.908 305.732 225.98 305.984 225.98C306.344 225.98 306.38 225.944 306.38 225.548C306.38 225.332 306.308 224.864 306.308 223.676V221.732C306.308 220.544 306.38 220.076 306.38 219.86C306.38 219.464 306.344 219.428 305.984 219.428C305.732 219.428 304.472 219.5 300.944 219.5H296.156V217.916H305.3C308.54 217.916 309.656 217.988 309.872 217.988C310.232 217.988 310.268 217.952 310.268 217.592V215.324C310.268 214.964 310.232 214.928 309.872 214.928C309.656 214.928 308.54 215 305.3 215H296.156C296.156 213.812 296.228 213.38 296.372 212.984C296.48 212.768 296.588 212.588 296.588 212.3C296.588 212.084 296.336 211.94 296.012 211.904C294.752 211.76 293.6 211.724 292.268 211.688C292.448 212.696 292.52 213.56 292.52 215H283.448C280.208 215 279.092 214.928 278.876 214.928C278.516 214.928 278.48 214.964 278.48 215.324V217.592C278.48 217.952 278.516 217.988 278.876 217.988C279.092 217.988 280.208 217.916 283.448 217.916H292.52V219.5H287.876C284.348 219.5 283.088 219.428 282.872 219.428C282.476 219.428 282.44 219.464 282.44 219.86C282.44 220.076 282.512 220.544 282.512 221.732V223.676C282.512 224.864 282.44 225.332 282.44 225.548C282.44 225.944 282.476 225.98 282.872 225.98C283.088 225.98 284.348 225.908 287.876 225.908H292.52V227.492H286.58C283.088 227.492 281.9 227.42 281.684 227.42C281.324 227.42 281.288 227.456 281.288 227.816V229.796C281.288 230.12 281.324 230.156 281.684 230.156C281.9 230.156 283.088 230.084 286.58 230.084H292.52V231.776H282.872C279.74 231.776 278.66 231.704 278.444 231.704C278.12 231.704 278.084 231.74 278.084 232.1V234.26C278.084 234.62 278.12 234.656 278.444 234.656C278.66 234.656 279.74 234.584 282.872 234.584H292.52ZM303.788 230.084V231.776H296.156V230.084H303.788ZM296.156 236.276V234.584H303.788V236.276H296.156ZM302.816 223.604H296.156V221.804H302.816V223.604ZM286.004 223.604V221.804H292.52V223.604H286.004ZM328.916 233.036C328.088 235.268 327.044 237.572 325.748 240.02C325.352 240.02 324.956 240.056 324.596 240.056C323.192 240.128 322.004 240.164 320.672 240.056C320.888 241.316 321.104 242.576 321.428 243.764C321.5 244.088 321.68 244.268 321.932 244.268C322.184 244.268 322.364 244.196 322.544 244.052C322.796 243.908 323.264 243.764 323.84 243.728C329.96 243.26 337.304 242.648 343.28 241.892C343.856 242.756 344.468 243.692 345.08 244.7C345.188 244.88 345.26 244.952 345.368 244.952C345.476 244.952 345.584 244.88 345.8 244.736L348.284 243.116C348.644 242.864 348.644 242.72 348.464 242.432C346.268 239.228 344.216 236.636 341.768 234.08C341.516 233.828 341.408 233.792 341.012 234.008L338.708 235.196C338.276 235.412 338.24 235.556 338.492 235.844C339.464 236.888 340.292 237.896 341.12 238.904C337.7 239.264 333.776 239.588 330.032 239.804C331.256 237.536 332.336 235.268 333.236 233.036H344.36C347.744 233.036 348.896 233.108 349.112 233.108C349.508 233.108 349.544 233.072 349.544 232.712V230.012C349.544 229.652 349.508 229.616 349.112 229.616C348.896 229.616 347.744 229.688 344.36 229.688H325.172C321.788 229.688 320.636 229.616 320.42 229.616C320.024 229.616 319.988 229.652 319.988 230.012V232.712C319.988 233.072 320.024 233.108 320.42 233.108C320.636 233.108 321.788 233.036 325.172 233.036H328.916ZM327.476 226.016C327.476 226.376 327.512 226.412 327.872 226.412C328.088 226.412 329.06 226.34 331.94 226.34H337.484C340.364 226.34 341.336 226.412 341.552 226.412C341.912 226.412 341.948 226.376 341.948 226.016V223.352C344.036 224.828 346.376 226.088 348.824 227.168C349.22 227.348 349.472 227.456 349.652 227.456C349.904 227.456 350.012 227.204 350.264 226.556C350.66 225.584 351.128 224.72 351.812 223.856C345.512 221.66 340.652 218.528 336.584 213.56C336.728 213.452 336.872 213.344 337.088 213.236C337.376 213.092 337.448 212.876 337.448 212.66C337.448 212.408 337.232 212.264 336.8 212.156C335.648 211.832 334.316 211.58 332.912 211.4C332.588 212.228 332.264 212.84 331.652 213.74C328.772 217.916 324.092 221.732 317.828 224.216C318.512 224.9 319.016 225.692 319.448 226.592C319.736 227.24 319.844 227.492 320.096 227.492C320.276 227.492 320.528 227.384 320.96 227.168C323.264 226.052 325.46 224.756 327.476 223.28V226.016ZM331.94 222.992C329.312 222.992 328.304 222.956 327.98 222.92C330.464 221.048 332.66 218.852 334.568 216.332C336.512 218.852 338.78 221.048 341.372 222.92C340.976 222.956 339.896 222.992 337.484 222.992H331.94Z" fill="white"/>
<rect x="2" width="597" height="111" fill="#009044"/>
<path d="M245.232 70.512C248.652 70.512 249.804 70.584 250.02 70.584C250.416 70.584 250.452 70.548 250.452 70.188V67.344C250.452 66.984 250.416 66.948 250.02 66.948C249.804 66.948 248.652 67.02 245.232 67.02H241.956V53.556H244.224C247.428 53.556 248.544 53.592 248.76 53.592C249.12 53.592 249.156 53.592 249.156 53.232V50.388C249.156 50.028 249.12 50.028 248.76 50.028C248.544 50.028 247.428 50.064 244.224 50.064H241.956V44.232C241.956 41.604 242.028 40.704 242.244 40.272C242.388 39.984 242.424 39.804 242.424 39.516C242.424 39.336 242.172 39.192 241.848 39.156C240.588 39.012 239.22 38.94 237.852 38.904C238.104 40.56 238.14 41.784 238.14 44.34V50.064H236.52C233.316 50.064 232.2 50.028 231.984 50.028C231.66 50.028 231.624 50.028 231.624 50.388V53.232C231.624 53.592 231.66 53.592 231.984 53.592C232.2 53.592 233.316 53.556 236.52 53.556H238.14V67.02H235.116C231.696 67.02 230.508 66.948 230.292 66.948C229.932 66.948 229.896 66.984 229.896 67.344V70.188C229.896 70.548 229.932 70.584 230.292 70.584C230.508 70.584 231.696 70.512 235.116 70.512H245.232ZM223.092 67.236C223.092 69.9 223.02 71.268 223.02 71.484C223.02 71.844 223.056 71.88 223.452 71.88H226.332C226.728 71.88 226.764 71.844 226.764 71.484C226.764 71.304 226.692 69.9 226.692 67.236V57.12C227.592 58.272 228.636 59.424 229.788 60.468C230.112 60.756 230.328 60.9 230.508 60.9C230.76 60.9 230.94 60.648 231.192 60.108C231.588 59.208 232.092 58.344 232.632 57.768C230.436 56.472 228.744 55.176 227.34 53.556C228.492 51.9 229.536 50.136 230.4 48.3C230.688 47.76 230.904 47.58 231.228 47.256C231.516 47.04 231.588 46.86 231.588 46.68C231.588 46.428 231.3 46.068 230.616 45.384C229.86 44.664 229.5 44.448 229.284 44.448C229.176 44.448 229.032 44.52 228.888 44.592C228.708 44.7 228.528 44.736 228.204 44.736H226.692V43.116C226.692 41.28 226.692 40.668 226.908 40.236C227.016 39.984 227.124 39.804 227.124 39.48C227.124 39.336 226.908 39.156 226.548 39.12C225.252 38.976 224.172 38.904 222.804 38.868C223.056 40.2 223.092 41.352 223.092 43.26V44.736H222.408C219.672 44.736 218.808 44.664 218.592 44.664C218.232 44.664 218.196 44.7 218.196 45.06V47.724C218.196 48.084 218.232 48.12 218.592 48.12C218.808 48.12 219.672 48.048 222.408 48.048H226.476C224.676 52.152 221.292 56.04 217.08 58.704C217.548 59.316 217.98 60.252 218.34 61.26C218.556 61.8 218.7 62.088 218.916 62.088C219.096 62.088 219.312 61.908 219.672 61.62C220.86 60.72 221.976 59.712 223.092 58.632V67.236ZM281.232 65.4C284.76 65.4 286.02 65.472 286.236 65.472C286.596 65.472 286.632 65.436 286.632 65.076C286.632 64.896 286.56 63.78 286.56 61.296V53.808C286.56 51.288 286.632 50.208 286.632 49.992C286.632 49.632 286.596 49.596 286.236 49.596C286.02 49.596 284.76 49.668 281.232 49.668H267.336C263.808 49.668 262.548 49.596 262.332 49.596C261.936 49.596 261.9 49.632 261.9 49.992C261.9 50.208 261.972 51.288 261.972 53.808V61.296C261.972 63.78 261.9 64.86 261.9 65.076C261.9 65.436 261.936 65.472 262.332 65.472C262.548 65.472 263.808 65.4 267.336 65.4H268.2C267.696 65.868 266.904 66.3 266.4 66.516C264.456 67.488 261.468 68.352 258.372 68.748C258.912 69.288 259.596 70.188 260.028 71.016C260.388 71.736 260.496 71.988 260.892 71.988C261.072 71.988 261.288 71.916 261.648 71.844C264.78 71.124 267.804 69.864 269.676 68.748C270.36 68.388 270.72 68.172 271.08 68.1C271.44 68.028 271.656 67.848 271.656 67.596C271.656 67.38 271.548 67.272 271.188 67.02C270.504 66.552 269.604 65.94 268.416 65.4H281.232ZM282.852 62.628H265.68V60.756H282.852V62.628ZM265.68 58.344V56.544H282.852V58.344H265.68ZM265.68 52.404H282.852V54.168H265.68V52.404ZM269.172 40.056C265.752 40.056 264.6 39.984 264.348 39.984C263.988 39.984 263.952 40.02 263.952 40.38C263.952 40.596 264.024 41.208 264.024 42.792V45.132C264.024 46.68 263.952 47.256 263.952 47.508C263.952 47.868 263.988 47.904 264.348 47.904C264.6 47.904 265.752 47.832 269.172 47.832H279.432C282.852 47.832 284.04 47.904 284.256 47.904C284.616 47.904 284.652 47.868 284.652 47.508C284.652 47.292 284.58 46.68 284.58 45.132V42.792C284.58 41.208 284.652 40.596 284.652 40.38C284.652 40.02 284.616 39.984 284.256 39.984C284.04 39.984 282.852 40.056 279.432 40.056H269.172ZM280.836 45.132H267.768V42.864H280.836V45.132ZM277.38 67.092C277.128 67.236 277.02 67.344 277.02 67.452C277.02 67.56 277.092 67.632 277.236 67.74C279.792 69.468 283.176 70.908 286.776 71.736C287.136 71.808 287.352 71.88 287.532 71.88C287.892 71.88 288.036 71.628 288.468 70.944C288.972 70.152 289.62 69.324 290.232 68.748C286.344 68.244 283.032 67.164 280.332 65.58C280.188 65.508 280.116 65.472 280.044 65.472C279.9 65.472 279.756 65.544 279.576 65.688L277.38 67.092ZM307.8 51.144C307.368 51.288 307.296 51.432 307.44 51.756C307.764 52.476 308.052 53.196 308.34 53.952C307.008 54.06 305.676 54.168 304.38 54.204C306.108 51.972 308.016 49.164 309.924 46.14C310.464 45.312 310.68 44.988 311.04 44.736C311.328 44.556 311.436 44.412 311.436 44.16C311.436 43.944 311.328 43.836 311.004 43.656C310.14 43.152 308.988 42.72 308.016 42.324C307.728 43.152 307.404 43.836 307.008 44.592C306.252 45.924 305.496 47.256 304.668 48.588L303.156 46.824C304.308 45.168 305.172 43.728 306.216 41.856C306.468 41.388 306.612 41.172 306.9 40.992C307.08 40.884 307.224 40.74 307.224 40.524C307.224 40.308 307.116 40.128 306.756 39.948C305.856 39.516 304.812 39.048 303.768 38.652C303.588 39.372 303.444 39.84 303.12 40.56C302.508 41.928 301.716 43.332 300.996 44.52C300.708 44.268 300.456 43.98 300.168 43.692C299.916 43.404 299.808 43.44 299.52 43.8L298.188 45.564C298.044 45.78 297.936 45.888 297.936 46.032C297.936 46.104 297.972 46.212 298.116 46.356C299.772 47.976 301.356 49.668 302.724 51.504C302.076 52.476 301.392 53.412 300.636 54.348C299.772 54.348 299.016 54.312 298.044 54.204C298.152 55.356 298.296 56.364 298.476 57.264C298.548 57.624 298.656 57.84 298.908 57.84C299.124 57.84 299.232 57.804 299.448 57.696C299.736 57.552 300.204 57.444 300.816 57.408L303.732 57.192V66.768C303.732 70.08 303.66 71.268 303.66 71.484C303.66 71.844 303.696 71.88 304.056 71.88H306.792C307.152 71.88 307.188 71.844 307.188 71.484C307.188 71.304 307.116 70.08 307.116 66.768V56.868L309.168 56.652L309.492 58.128C309.564 58.56 309.636 58.56 310.14 58.38L311.904 57.732C312.336 57.588 312.408 57.444 312.336 57.084C311.76 54.852 311.076 52.872 310.032 50.784C309.888 50.424 309.852 50.424 309.456 50.568L307.8 51.144ZM322.632 49.128C322.272 49.38 322.2 49.452 322.416 49.74C322.992 50.46 323.568 51.18 324.108 51.972C322.272 52.224 320.544 52.404 318.6 52.548C319.5 51.036 320.508 48.984 320.976 47.94C321.228 47.4 321.66 46.824 321.876 46.608C322.092 46.392 322.2 46.284 322.2 46.068C322.2 45.78 322.02 45.636 321.624 45.492C320.76 45.204 319.608 44.88 318.312 44.628C318.204 45.42 317.952 46.248 317.628 47.04C317.088 48.444 315.9 51 314.928 52.764C314.064 52.8 313.236 52.8 312.264 52.764C312.48 53.808 312.768 54.96 312.984 55.86C313.092 56.256 313.236 56.472 313.452 56.472C313.704 56.472 313.848 56.364 314.1 56.22C314.352 56.076 314.856 55.968 315.648 55.896C318.924 55.572 322.236 55.104 325.8 54.636L326.772 56.508C326.88 56.724 326.952 56.832 327.096 56.832C327.204 56.832 327.312 56.76 327.492 56.652L329.436 55.464C329.832 55.212 329.868 55.14 329.688 54.816C328.32 52.368 326.664 50.028 324.936 48.12C324.792 47.976 324.72 47.904 324.612 47.904C324.504 47.904 324.396 47.976 324.216 48.084L322.632 49.128ZM316.188 67.992C316.188 69.36 316.512 70.224 317.16 70.728C317.808 71.196 318.996 71.34 320.94 71.34C323.028 71.34 324.18 71.16 325.044 70.476C325.8 69.864 326.304 68.964 326.592 66.624C326.7 65.652 326.664 65.652 325.764 65.364C324.972 65.112 324.108 64.788 323.532 64.356C323.424 66.156 323.28 67.308 322.848 67.776C322.452 68.244 321.876 68.208 321.192 68.208C320.508 68.208 320.184 68.172 319.896 67.956C319.572 67.74 319.536 67.38 319.536 66.732V62.376C319.536 61.476 319.644 61.044 319.752 60.792C319.824 60.612 319.896 60.54 319.896 60.324C319.896 60.18 319.752 60.036 319.392 59.964C318.42 59.784 316.836 59.676 316.008 59.676C316.152 60.612 316.188 61.224 316.188 62.016V67.992ZM308.232 59.46C307.8 59.604 307.764 59.676 307.872 60.036C308.34 61.368 308.7 63.384 308.916 65.328C308.952 65.724 309.024 65.76 309.528 65.58L311.472 64.896C311.112 65.832 310.68 66.768 310.104 67.632C309.924 67.92 309.924 68.028 310.392 68.316L312.264 69.432C312.696 69.684 312.84 69.72 312.984 69.396C314.28 67.2 314.964 64.572 315.432 62.016C315.504 61.62 315.468 61.512 315.072 61.404L313.092 60.864C312.624 60.72 312.516 60.792 312.444 61.188C312.228 62.268 312.012 63.312 311.688 64.32C311.436 62.736 310.896 60.468 310.428 59.244C310.284 58.884 310.248 58.848 309.816 58.992L308.232 59.46ZM315.864 39.228C315.684 39.876 315.324 40.704 314.856 41.532C313.776 43.404 312.372 45.348 310.284 46.932C310.824 47.292 311.508 47.976 312.048 48.66C312.444 49.164 312.66 49.416 312.876 49.416C313.056 49.416 313.236 49.236 313.596 48.876C315.576 46.932 316.908 44.88 318.132 42.792C318.456 42.216 318.672 41.82 318.96 41.604C319.248 41.424 319.284 41.28 319.284 41.064C319.284 40.884 319.212 40.812 318.888 40.596C318.096 40.128 316.836 39.588 315.864 39.228ZM322.38 40.596C321.948 40.848 321.912 40.956 322.128 41.28C323.748 44.016 325.728 46.5 328.14 48.516C328.536 48.84 328.788 48.984 328.968 48.984C329.184 48.984 329.364 48.768 329.688 48.228C330.156 47.436 330.768 46.644 331.308 46.14C328.284 44.34 326.664 42.216 324.936 39.588C324.756 39.3 324.648 39.228 324.252 39.48L322.38 40.596ZM298.008 68.064C298.476 68.208 299.52 68.712 299.988 69C300.384 69.252 300.636 69.432 300.816 69.432C301.032 69.432 301.104 69.144 301.284 68.568C301.896 66.516 302.256 64.104 302.472 62.088C302.544 61.476 302.652 60.936 302.76 60.756C302.904 60.576 302.94 60.432 302.94 60.216C302.94 60.072 302.76 59.928 302.328 59.784C301.716 59.604 300.636 59.388 299.556 59.208C299.592 60.072 299.556 60.72 299.484 61.512C299.304 63.96 298.8 66.156 298.008 68.064ZM325.692 61.656C325.26 61.872 325.188 62.016 325.404 62.34C326.628 64.212 327.564 66.264 328.356 68.676C328.5 69.072 328.68 69.072 329.076 68.856L331.056 67.776C331.524 67.56 331.596 67.452 331.452 67.092C330.588 64.68 329.652 62.952 328.248 60.9C328.032 60.612 327.924 60.612 327.528 60.756L325.692 61.656ZM317.952 57.264C317.772 57.444 317.7 57.552 317.7 57.66C317.7 57.768 317.844 57.84 318.024 57.948C319.716 58.956 321.192 60.18 322.452 61.44C322.704 61.728 322.812 61.728 323.208 61.296L324.648 59.712C324.792 59.532 324.9 59.388 324.9 59.28C324.9 59.136 324.792 58.992 324.612 58.848C323.28 57.66 321.66 56.652 320.076 55.752C319.752 55.572 319.68 55.572 319.356 55.896L317.952 57.264ZM349.236 60.036C348.408 62.268 347.364 64.572 346.068 67.02C345.672 67.02 345.276 67.056 344.916 67.056C343.512 67.128 342.324 67.164 340.992 67.056C341.208 68.316 341.424 69.576 341.748 70.764C341.82 71.088 342 71.268 342.252 71.268C342.504 71.268 342.684 71.196 342.864 71.052C343.116 70.908 343.584 70.764 344.16 70.728C350.28 70.26 357.624 69.648 363.6 68.892C364.176 69.756 364.788 70.692 365.4 71.7C365.508 71.88 365.58 71.952 365.688 71.952C365.796 71.952 365.904 71.88 366.12 71.736L368.604 70.116C368.964 69.864 368.964 69.72 368.784 69.432C366.588 66.228 364.536 63.636 362.088 61.08C361.836 60.828 361.728 60.792 361.332 61.008L359.028 62.196C358.596 62.412 358.56 62.556 358.812 62.844C359.784 63.888 360.612 64.896 361.44 65.904C358.02 66.264 354.096 66.588 350.352 66.804C351.576 64.536 352.656 62.268 353.556 60.036H364.68C368.064 60.036 369.216 60.108 369.432 60.108C369.828 60.108 369.864 60.072 369.864 59.712V57.012C369.864 56.652 369.828 56.616 369.432 56.616C369.216 56.616 368.064 56.688 364.68 56.688H345.492C342.108 56.688 340.956 56.616 340.74 56.616C340.344 56.616 340.308 56.652 340.308 57.012V59.712C340.308 60.072 340.344 60.108 340.74 60.108C340.956 60.108 342.108 60.036 345.492 60.036H349.236ZM347.796 53.016C347.796 53.376 347.832 53.412 348.192 53.412C348.408 53.412 349.38 53.34 352.26 53.34H357.804C360.684 53.34 361.656 53.412 361.872 53.412C362.232 53.412 362.268 53.376 362.268 53.016V50.352C364.356 51.828 366.696 53.088 369.144 54.168C369.54 54.348 369.792 54.456 369.972 54.456C370.224 54.456 370.332 54.204 370.584 53.556C370.98 52.584 371.448 51.72 372.132 50.856C365.832 48.66 360.972 45.528 356.904 40.56C357.048 40.452 357.192 40.344 357.408 40.236C357.696 40.092 357.768 39.876 357.768 39.66C357.768 39.408 357.552 39.264 357.12 39.156C355.968 38.832 354.636 38.58 353.232 38.4C352.908 39.228 352.584 39.84 351.972 40.74C349.092 44.916 344.412 48.732 338.148 51.216C338.832 51.9 339.336 52.692 339.768 53.592C340.056 54.24 340.164 54.492 340.416 54.492C340.596 54.492 340.848 54.384 341.28 54.168C343.584 53.052 345.78 51.756 347.796 50.28V53.016ZM352.26 49.992C349.632 49.992 348.624 49.956 348.3 49.92C350.784 48.048 352.98 45.852 354.888 43.332C356.832 45.852 359.1 48.048 361.692 49.92C361.296 49.956 360.216 49.992 357.804 49.992H352.26Z" fill="white"/>
</svg>
