<svg width="130" height="154" viewBox="0 0 130 154" fill="none" xmlns="http://www.w3.org/2000/svg">
<g clip-path="url(#clip0_10_3)">
<rect width="130" height="154" fill="white"/>
<rect width="130" height="154" fill="#F2FDF3"/>
<path d="M32.384 71.068H30.152V76.936C30.152 78.808 30.224 80.338 30.332 82.048H30.08C29.558 80.428 29.018 79.006 28.226 77.26L25.328 71.068H21.674V85.036H23.906V78.268C23.906 76.54 23.87 74.884 23.78 73.228H24.032C24.662 74.794 25.22 76.09 26.03 77.836L29.414 85.036H32.384V71.068ZM39.6965 70.834C36.1325 70.834 33.7025 73.462 33.7025 78.088C33.7025 82.696 36.0965 85.306 39.6785 85.306C43.2605 85.306 45.6725 82.66 45.6725 78.052C45.6725 73.426 43.2785 70.834 39.6965 70.834ZM39.6965 72.706C41.7485 72.706 43.0985 74.488 43.0985 78.07C43.0985 81.634 41.7485 83.434 39.6965 83.434C37.6445 83.434 36.2765 81.634 36.2765 78.07C36.2765 74.488 37.6445 72.706 39.6965 72.706ZM50.853 71.068V85.036H53.283V79.168H55.641C58.989 79.168 60.771 77.638 60.771 75.064C60.771 72.49 59.223 71.068 55.785 71.068H50.853ZM53.283 72.886H55.659C57.513 72.886 58.323 73.696 58.323 75.082C58.323 76.504 57.423 77.35 55.569 77.35H53.283V72.886ZM72.7115 71.068H70.2995V76.756H64.4855V71.068H62.0735V85.036H64.4855V78.736H70.2995V85.036H72.7115V71.068ZM80.0256 70.834C76.4616 70.834 74.0316 73.462 74.0316 78.088C74.0316 82.696 76.4256 85.306 80.0076 85.306C83.5896 85.306 86.0016 82.66 86.0016 78.052C86.0016 73.426 83.6076 70.834 80.0256 70.834ZM80.0256 72.706C82.0776 72.706 83.4276 74.488 83.4276 78.07C83.4276 81.634 82.0776 83.434 80.0256 83.434C77.9736 83.434 76.6056 81.634 76.6056 78.07C76.6056 74.488 77.9736 72.706 80.0256 72.706ZM96.7455 71.068H86.0175V73.03H90.1395V85.036H92.5875V73.03H96.7455V71.068ZM102.765 70.834C99.2014 70.834 96.7714 73.462 96.7714 78.088C96.7714 82.696 99.1654 85.306 102.747 85.306C106.329 85.306 108.741 82.66 108.741 78.052C108.741 73.426 106.347 70.834 102.765 70.834ZM102.765 72.706C104.817 72.706 106.167 74.488 106.167 78.07C106.167 81.634 104.817 83.434 102.765 83.434C100.713 83.434 99.3454 81.634 99.3454 78.07C99.3454 74.488 100.713 72.706 102.765 72.706Z" fill="#009044"/>
</g>
<defs>
<clipPath id="clip0_10_3">
<rect width="130" height="154" fill="white"/>
</clipPath>
</defs>
</svg>
